<?xml version="1.0" encoding="UTF-8"?>
<svg id="Layer_1" data-name="Layer 1" xmlns="http://www.w3.org/2000/svg" viewBox="0 0 1036 1036">
  <defs>
    <style>
      .cls-1 {
        fill: #000;
        stroke-width: 0px;
      }
      @media (prefers-color-scheme: dark) {
        .cls-1 {
          fill: white;
          stroke: black;
          stroke-width: 4px;
        }
      }
    </style>
  </defs>
  <path class="cls-1" d="M750.68,589.43s.23-38.11-20.2-80.85c-47.39-99.11-192.51-262.52-637.32-187.02L6,471.04l90.6,70.64c54-21.48,416.22-226.88,654.08,47.74ZM151.47,391.09l-30.03,48.34-48.34-30.03,78.37-18.31Z"/>
  <path class="cls-1" d="M738.22,730.83c-3.94-23.4-43.96-115.05-152.34-164.41-106.9-48.68-271.89-54.38-508.25,85.35l-25.29,155.12,97.45,44s313.11-337.8,588.44-120.07ZM138.74,746.13l-55.67-12.25,67.92-43.43-12.24,55.67Z"/>
  <path class="cls-1" d="M890.24,163.78c-39.38-42.16-89.65-73.06-142.2-95.7l61.08-62.08h-367.12l-229.41,103.87,49.7,106.61c316.79-15.49,555.34,112.8,568.35,357.23,13.83,259.95-243.25,424.86-490.77,378.09-82.03-15.5-124.23-33.51-124.23-33.51,55.96,49.09,170.06,109.93,306.74,111.68,275.52,3.51,502.28-221.26,507.51-501.72,2.65-141.54-51.03-270.27-139.67-364.46ZM442.01,113.39l-47.02-47.02h94.04l-47.02,47.02Z"/>
</svg>
