<?xml version="1.0" standalone="no"?>
<!DOCTYPE svg PUBLIC "-//W3C//DTD SVG 20010904//EN"
 "http://www.w3.org/TR/2001/REC-SVG-20010904/DTD/svg10.dtd">
<svg version="1.0" xmlns="http://www.w3.org/2000/svg"
 width="256.000000pt" height="256.000000pt" viewBox="0 0 256.000000 256.000000"
 preserveAspectRatio="xMidYMid meet">

<g transform="translate(0.000000,256.000000) scale(0.100000,-0.100000)"
fill="#000000" stroke="none">
<path d="M1915 2343 c-82 -11 -214 -38 -340 -70 -125 -32 -155 -36 -285 -38
-143 -2 -147 -2 -260 -43 -175 -63 -336 -137 -332 -153 9 -41 76 -216 86 -225
15 -15 313 -89 458 -114 225 -38 366 -104 474 -222 79 -88 147 -236 180 -398
17 -83 -7 -243 -53 -355 -25 -61 -99 -168 -153 -222 -91 -91 -276 -185 -405
-205 -207 -32 -500 83 -813 320 -41 31 -37 21 24 -59 88 -116 228 -224 389
-300 128 -60 202 -79 347 -86 233 -12 435 47 648 190 259 173 415 466 427 802
9 240 -60 469 -193 644 l-36 46 63 5 63 5 -44 38 c-70 60 -154 112 -256 158
-87 40 -93 44 -78 60 14 16 13 17 -23 24 -50 8 -67 19 -60 38 9 25 126 75 266
114 77 22 125 40 118 45 -12 8 -155 8 -212 1z m-689 -225 c9 -14 -32 -48 -59
-48 -24 0 -57 27 -57 47 0 17 105 18 116 1z"/>
<path d="M633 1669 c-76 -9 -163 -49 -209 -97 -56 -58 -134 -180 -134 -211 0
-23 17 -40 111 -109 147 -108 144 -108 355 -1 189 96 301 136 419 148 211 21
375 -36 537 -188 36 -33 71 -61 77 -61 20 0 12 54 -18 115 -79 166 -224 284
-413 334 -84 23 -166 34 -398 55 -234 22 -258 23 -327 15z m-178 -289 c0 -20
-5 -25 -25 -25 -20 0 -26 6 -28 28 -3 26 -1 28 25 25 22 -2 28 -8 28 -28z"/>
<path d="M1112 1320 c-73 -11 -88 -17 -329 -138 -183 -91 -219 -106 -264 -107
-62 -1 -67 -7 -110 -119 -37 -96 -45 -145 -30 -175 17 -30 227 -131 275 -131
22 0 96 55 216 160 332 292 534 347 741 202 64 -45 118 -113 149 -190 36 -91
43 -87 38 18 -4 77 -11 108 -33 159 -32 71 -91 151 -147 199 -98 87 -345 146
-506 122z m-577 -464 c0 -29 -31 -44 -50 -25 -23 23 -9 51 24 47 18 -2 26 -9
26 -22z"/>
</g>
</svg>
