<?xml version="1.0" encoding="UTF-8"?>
<svg xmlns="http://www.w3.org/2000/svg" viewBox="0 12 820 208">
  <defs>
    <marker id="arr" markerWidth="9" markerHeight="7" refX="8.5" refY="3.5" orient="auto">
      <polygon points="0 0,9 3.5,0 7" fill="#1a1a1a"/>
    </marker>
  </defs>
  <rect width="820" height="220" fill="white"/>
  <rect x="15" y="40" width="200" height="82" rx="14" fill="#f9fafb" stroke="#1a1a1a" stroke-width="1.8"/>
  <rect x="15" y="40" width="200" height="24" rx="14" fill="#9DD6FE"/>
  <rect x="15" y="50" width="200" height="14" fill="#9DD6FE"/>
  <line x1="15" y1="64" x2="215" y2="64" stroke="#1a1a1a" stroke-width="0.8"/>
  <line x1="15" y1="86" x2="215" y2="86" stroke="#1a1a1a" stroke-width="0.8"/>
  <text x="115" y="57" text-anchor="middle" font-family="serif" font-size="12" fill="#1a1a1a" font-style="italic" font-weight="bold">ν<tspan baseline-shift="-25%" font-size="8">head</tspan></text>
  <text x="115" y="80" text-anchor="middle" font-family="serif" font-size="10" fill="#1a1a1a" font-style="italic">val<tspan baseline-shift="-25%" font-size="8">head</tspan></text>
  <text x="115" y="98" text-anchor="middle" font-family="serif" font-size="10" fill="#1a1a1a">closed, cid, k̃<tspan baseline-shift="-25%" font-size="8">H</tspan>, n, T,</text>
  <text x="115" y="112" text-anchor="middle" font-family="serif" font-size="10" fill="#1a1a1a">s, η, C, t<tspan baseline-shift="-25%" font-size="8">final</tspan>, v, ₳<tspan baseline-shift="-25%" font-size="8">o</tspan></text>
  <rect x="285" y="30" width="215" height="130" rx="2" fill="white" stroke="#1a1a1a" stroke-width="2"/>
  <rect x="286" y="31" width="213" height="27" rx="0" fill="#FFEA94" stroke="none" stroke-width="0"/>
  <text x="392" y="49" text-anchor="middle" font-family="serif" font-size="13" fill="#1a1a1a" font-weight="bold">contestTx</text>
  <line x1="285" y1="58" x2="500" y2="58" stroke="#1a1a1a" stroke-width="1.5"/>
  <line x1="381" y1="58" x2="381" y2="94" stroke="#1a1a1a" stroke-width="0.8"/>
  <text x="333" y="73" text-anchor="middle" font-family="serif" font-size="10" fill="#1a1a1a" font-style="italic">contest</text>
  <text x="333" y="86" text-anchor="middle" font-family="serif" font-size="10" fill="#1a1a1a" font-style="italic">ξ, η#</text>
  <text x="440" y="80" text-anchor="middle" font-family="serif" font-size="10" fill="#1a1a1a" font-style="italic">o<tspan baseline-shift="-25%" font-size="8">head</tspan></text>
  <line x1="285" y1="94" x2="500" y2="94" stroke="#1a1a1a" stroke-width="0.6"/>
  <text x="392" y="109" text-anchor="middle" font-family="serif" font-size="10" fill="#1a1a1a" font-style="italic">t<tspan baseline-shift="-25%" font-size="8">min</tspan>, t<tspan baseline-shift="-25%" font-size="8">max</tspan></text>
  <line x1="285" y1="116" x2="500" y2="116" stroke="#1a1a1a" stroke-width="0.6"/>
  <text x="392" y="131" text-anchor="middle" font-family="serif" font-size="10" fill="#1a1a1a" font-style="italic">κ = {k<tspan dy="4" font-size="7">i</tspan><tspan dy="-9" font-size="7">#</tspan><tspan dy="5">}</tspan></text>
  <line x1="285" y1="138" x2="500" y2="138" stroke="#1a1a1a" stroke-width="0.6"/>
  <text x="392" y="153" text-anchor="middle" font-family="serif" font-size="10" fill="#1a1a1a" font-style="italic">mint = ∅</text>
  <rect x="575" y="20" width="225" height="82" rx="14" fill="#f9fafb" stroke="#1a1a1a" stroke-width="1.8"/>
  <rect x="575" y="20" width="225" height="24" rx="14" fill="#ACE9BB"/>
  <rect x="575" y="30" width="225" height="14" fill="#ACE9BB"/>
  <line x1="575" y1="44" x2="800" y2="44" stroke="#1a1a1a" stroke-width="0.8"/>
  <line x1="575" y1="66" x2="800" y2="66" stroke="#1a1a1a" stroke-width="0.8"/>
  <text x="687" y="37" text-anchor="middle" font-family="serif" font-size="12" fill="#1a1a1a" font-style="italic" font-weight="bold">ν<tspan baseline-shift="-25%" font-size="8">head</tspan></text>
  <text x="687" y="60" text-anchor="middle" font-family="serif" font-size="10" fill="#1a1a1a" font-style="italic">val′<tspan baseline-shift="-25%" font-size="8">head</tspan></text>
  <text x="687" y="78" text-anchor="middle" font-family="serif" font-size="10" fill="#1a1a1a">closed, cid, k̃<tspan baseline-shift="-25%" font-size="8">H</tspan>, n, T,</text>
  <text x="687" y="92" text-anchor="middle" font-family="serif" font-size="10" fill="#1a1a1a">s′, η′, C′, t′<tspan baseline-shift="-25%" font-size="8">final</tspan>, v′, ₳<tspan baseline-shift="-25%" font-size="8">o</tspan></text>
  <path d="M215,81 C242,81 268,95 285,95" fill="none" stroke="#1a1a1a" stroke-width="1.5" marker-end="url(#arr)"/>
  <path d="M500,95 C528,95 552,67 575,67" fill="none" stroke="#1a1a1a" stroke-width="1.5" marker-end="url(#arr)"/>
  <circle cx="575" cy="67" r="4" fill="white" stroke="#1a1a1a" stroke-width="1.4"/>
</svg>