<?xml version="1.0" encoding="UTF-8"?>
<svg xmlns="http://www.w3.org/2000/svg" viewBox="0 10 810 220">
  <defs>
    <marker id="arr" markerWidth="9" markerHeight="7" refX="8.5" refY="3.5" orient="auto">
      <polygon points="0 0,9 3.5,0 7" fill="#1a1a1a"/>
    </marker>
  </defs>
  <rect width="810" height="230" fill="white"/>
  <text x="400" y="20" text-anchor="middle" font-family="serif" font-size="10" fill="#1a1a1a" font-style="italic">ξ ~ MSigned(cid ‖ η′ ‖ Combine(U))</text>
  <rect x="18" y="70" width="195" height="68" rx="14" fill="#f9fafb" stroke="#1a1a1a" stroke-width="1.8"/>
  <rect x="18" y="70" width="195" height="24" rx="14" fill="#9DD6FE"/>
  <rect x="18" y="80" width="195" height="14" fill="#9DD6FE"/>
  <line x1="18" y1="94" x2="213" y2="94" stroke="#1a1a1a" stroke-width="0.8"/>
  <line x1="18" y1="116" x2="213" y2="116" stroke="#1a1a1a" stroke-width="0.8"/>
  <text x="115" y="87" text-anchor="middle" font-family="serif" font-size="12" fill="#1a1a1a" font-style="italic" font-weight="bold">ν<tspan baseline-shift="-25%" font-size="8">head</tspan></text>
  <text x="115" y="110" text-anchor="middle" font-family="serif" font-size="10" fill="#1a1a1a" font-style="italic">val<tspan baseline-shift="-25%" font-size="8">head</tspan></text>
  <text x="115" y="128" text-anchor="middle" font-family="serif" font-size="10" fill="#1a1a1a">open, cid, k̃<tspan baseline-shift="-25%" font-size="8">H</tspan>, n, T, η, v, ₳<tspan baseline-shift="-25%" font-size="8">o</tspan></text>
  <rect x="290" y="35" width="210" height="186" rx="2" fill="white" stroke="#1a1a1a" stroke-width="2"/>
  <rect x="291" y="36" width="208" height="27" rx="0" fill="#FFEA94" stroke="none" stroke-width="0"/>
  <text x="395" y="54" text-anchor="middle" font-family="serif" font-size="13" fill="#1a1a1a" font-weight="bold">decrementTx</text>
  <line x1="290" y1="63" x2="500" y2="63" stroke="#1a1a1a" stroke-width="1.5"/>
  <line x1="384" y1="63" x2="384" y2="155" stroke="#1a1a1a" stroke-width="0.8"/>
  <text x="337" y="78" text-anchor="middle" font-family="serif" font-size="10" fill="#1a1a1a" font-style="italic">decrement</text>
  <text x="337" y="91" text-anchor="middle" font-family="serif" font-size="10" fill="#1a1a1a" font-style="italic">ξ<tspan baseline-shift="-25%" font-size="8">ms</tspan></text>
  <text x="435" y="85" text-anchor="middle" font-family="serif" font-size="10" fill="#1a1a1a" font-style="italic">o<tspan baseline-shift="-25%" font-size="8">head</tspan></text>
  <text x="532" y="88" text-anchor="middle" font-family="serif" font-size="9" fill="#1a1a1a">1</text>
  <line x1="290" y1="99" x2="500" y2="99" stroke="#1a1a1a" stroke-width="0.6"/>
  <line x1="290" y1="117" x2="500" y2="117" stroke="#1a1a1a" stroke-width="0.6"/>
  <text x="435" y="131" text-anchor="middle" font-family="serif" font-size="10" fill="#1a1a1a" font-style="italic">⋯</text>
  <line x1="290" y1="137" x2="500" y2="137" stroke="#1a1a1a" stroke-width="0.6"/>
  <line x1="290" y1="155" x2="500" y2="155" stroke="#1a1a1a" stroke-width="0.6"/>
  <text x="395" y="170" text-anchor="middle" font-family="serif" font-size="10" fill="#1a1a1a" font-style="italic">t<tspan baseline-shift="-25%" font-size="8">min</tspan>, t<tspan baseline-shift="-25%" font-size="8">max</tspan></text>
  <line x1="290" y1="177" x2="500" y2="177" stroke="#1a1a1a" stroke-width="0.6"/>
  <text x="395" y="192" text-anchor="middle" font-family="serif" font-size="10" fill="#1a1a1a" font-style="italic">κ = {k<tspan dy="4" font-size="7">i</tspan><tspan dy="-9" font-size="7">#</tspan><tspan dy="5">}</tspan></text>
  <line x1="290" y1="199" x2="500" y2="199" stroke="#1a1a1a" stroke-width="0.6"/>
  <text x="395" y="214" text-anchor="middle" font-family="serif" font-size="10" fill="#1a1a1a" font-style="italic">mint = ∅</text>
  <rect x="572" y="35" width="210" height="82" rx="14" fill="#f9fafb" stroke="#1a1a1a" stroke-width="1.8"/>
  <rect x="572" y="35" width="210" height="24" rx="14" fill="#ACE9BB"/>
  <rect x="572" y="45" width="210" height="14" fill="#ACE9BB"/>
  <line x1="572" y1="59" x2="782" y2="59" stroke="#1a1a1a" stroke-width="0.8"/>
  <line x1="572" y1="81" x2="782" y2="81" stroke="#1a1a1a" stroke-width="0.8"/>
  <text x="677" y="52" text-anchor="middle" font-family="serif" font-size="12" fill="#1a1a1a" font-style="italic" font-weight="bold">ν<tspan baseline-shift="-25%" font-size="8">head</tspan></text>
  <text x="677" y="75" text-anchor="middle" font-family="serif" font-size="10" fill="#1a1a1a" font-style="italic">val′<tspan baseline-shift="-25%" font-size="8">head</tspan></text>
  <text x="677" y="93" text-anchor="middle" font-family="serif" font-size="10" fill="#1a1a1a">open, cid, k̃<tspan baseline-shift="-25%" font-size="8">H</tspan>, n,</text>
  <text x="677" y="107" text-anchor="middle" font-family="serif" font-size="10" fill="#1a1a1a">T, η′, v′, ₳<tspan baseline-shift="-25%" font-size="8">o</tspan></text>
  <text x="507" y="134" text-anchor="start" font-family="serif" font-size="16" fill="#1a1a1a">}</text>
  <text x="524" y="134" text-anchor="start" font-family="serif" font-size="11" fill="#1a1a1a" font-style="italic">U<tspan baseline-shift="-25%" font-size="9">ω</tspan></text>
  <path d="M213,104 C245,104 275,100 290,100" fill="none" stroke="#1a1a1a" stroke-width="1.5" marker-end="url(#arr)"/>
  <path d="M500,100 C528,100 548,82 572,82" fill="none" stroke="#1a1a1a" stroke-width="1.5" marker-end="url(#arr)"/>
  <circle cx="572" cy="82" r="4" fill="white" stroke="#1a1a1a" stroke-width="1.4"/>
</svg>