<?xml version="1.0" encoding="UTF-8"?>
<svg xmlns="http://www.w3.org/2000/svg" viewBox="0 10 520 295">
  <defs>
    <marker id="arr" markerWidth="9" markerHeight="7" refX="8.5" refY="3.5" orient="auto">
      <polygon points="0 0,9 3.5,0 7" fill="#1a1a1a"/>
    </marker>
  </defs>
  <rect width="520" height="305" fill="white"/>
  <rect x="15" y="80" width="200" height="82" rx="14" fill="#f9fafb" stroke="#1a1a1a" stroke-width="1.8"/>
  <rect x="15" y="80" width="200" height="24" rx="14" fill="#9DD6FE"/>
  <rect x="15" y="90" width="200" height="14" fill="#9DD6FE"/>
  <line x1="15" y1="104" x2="215" y2="104" stroke="#1a1a1a" stroke-width="0.8"/>
  <line x1="15" y1="126" x2="215" y2="126" stroke="#1a1a1a" stroke-width="0.8"/>
  <text x="115" y="97" text-anchor="middle" font-family="serif" font-size="12" fill="#1a1a1a" font-style="italic" font-weight="bold">ν<tspan baseline-shift="-25%" font-size="8">head</tspan></text>
  <text x="115" y="120" text-anchor="middle" font-family="serif" font-size="10" fill="#1a1a1a" font-style="italic">val<tspan baseline-shift="-25%" font-size="8">head</tspan></text>
  <text x="115" y="138" text-anchor="middle" font-family="serif" font-size="10" fill="#1a1a1a">closed, cid, k̃<tspan baseline-shift="-25%" font-size="8">H</tspan>, n, T,</text>
  <text x="115" y="152" text-anchor="middle" font-family="serif" font-size="10" fill="#1a1a1a">s, η, C, t<tspan baseline-shift="-25%" font-size="8">final</tspan>, v, ₳<tspan baseline-shift="-25%" font-size="8">o</tspan></text>
  <rect x="285" y="20" width="215" height="238" rx="2" fill="white" stroke="#1a1a1a" stroke-width="2"/>
  <rect x="286" y="21" width="213" height="27" rx="0" fill="#FFEA94" stroke="none" stroke-width="0"/>
  <text x="392" y="39" text-anchor="middle" font-family="serif" font-size="13" fill="#1a1a1a" font-weight="bold">fanoutTx</text>
  <line x1="285" y1="48" x2="500" y2="48" stroke="#1a1a1a" stroke-width="1.5"/>
  <line x1="381" y1="48" x2="381" y2="192" stroke="#1a1a1a" stroke-width="0.8"/>
  <text x="333" y="63" text-anchor="middle" font-family="serif" font-size="10" fill="#1a1a1a" font-style="italic">fanout</text>
  <text x="333" y="76" text-anchor="middle" font-family="serif" font-size="10" fill="#1a1a1a" font-style="italic">m,n,n′</text>
  <text x="440" y="70" text-anchor="middle" font-family="serif" font-size="10" fill="#1a1a1a" font-style="italic">o<tspan baseline-shift="-25%" font-size="8">m</tspan></text>
  <line x1="285" y1="84" x2="500" y2="84" stroke="#1a1a1a" stroke-width="0.6"/>
  <text x="440" y="106" text-anchor="middle" font-family="serif" font-size="10" fill="#1a1a1a" font-style="italic">…</text>
  <line x1="285" y1="120" x2="500" y2="120" stroke="#1a1a1a" stroke-width="0.6"/>
  <text x="440" y="142" text-anchor="middle" font-family="serif" font-size="10" fill="#1a1a1a" font-style="italic">o<tspan baseline-shift="-25%" font-size="8">n</tspan></text>
  <line x1="285" y1="156" x2="500" y2="156" stroke="#1a1a1a" stroke-width="0.6"/>
  <text x="440" y="178" text-anchor="middle" font-family="serif" font-size="10" fill="#1a1a1a" font-style="italic">o<tspan baseline-shift="-25%" font-size="8">n</tspan>′</text>
  <line x1="285" y1="192" x2="500" y2="192" stroke="#1a1a1a" stroke-width="0.6"/>
  <text x="392" y="207" text-anchor="middle" font-family="serif" font-size="10" fill="#1a1a1a" font-style="italic">t<tspan baseline-shift="-25%" font-size="8">min</tspan>, t<tspan baseline-shift="-25%" font-size="8">max</tspan></text>
  <line x1="285" y1="214" x2="500" y2="214" stroke="#1a1a1a" stroke-width="0.6"/>
  <text x="392" y="229" text-anchor="middle" font-family="serif" font-size="10" fill="#1a1a1a" font-style="italic">κ = {k<tspan dy="4" font-size="7">i</tspan><tspan dy="-9" font-size="7">#</tspan><tspan dy="5">}</tspan></text>
  <line x1="285" y1="236" x2="500" y2="236" stroke="#1a1a1a" stroke-width="0.6"/>
  <text x="392" y="251" text-anchor="middle" font-family="serif" font-size="10" fill="#1a1a1a" font-style="italic">mint = {ST, PT₁…PTₙ}⁻¹ :: cid</text>
  <path d="M215,121 C242,121 268,139 285,139" fill="none" stroke="#1a1a1a" stroke-width="1.5" marker-end="url(#arr)"/>
</svg>