<?xml version="1.0" encoding="UTF-8"?>
<svg xmlns="http://www.w3.org/2000/svg" viewBox="0 10 870 250">
  <defs>
    <marker id="arr" markerWidth="9" markerHeight="7" refX="8.5" refY="3.5" orient="auto">
      <polygon points="0 0,9 3.5,0 7" fill="#1a1a1a"/>
    </marker>
  </defs>
  <rect width="870" height="260" fill="white"/>
  <!-- ν_head input box (blue, FanoutProgressDatum) -->
  <rect x="15" y="40" width="210" height="82" rx="14" fill="#f9fafb" stroke="#1a1a1a" stroke-width="1.8"/>
  <rect x="15" y="40" width="210" height="24" rx="14" fill="#9DD6FE"/>
  <rect x="15" y="50" width="210" height="14" fill="#9DD6FE"/>
  <line x1="15" y1="64" x2="225" y2="64" stroke="#1a1a1a" stroke-width="0.8"/>
  <line x1="15" y1="86" x2="225" y2="86" stroke="#1a1a1a" stroke-width="0.8"/>
  <text x="120" y="57" text-anchor="middle" font-family="serif" font-size="12" fill="#1a1a1a" font-style="italic" font-weight="bold">ν<tspan baseline-shift="-25%" font-size="8">head</tspan></text>
  <text x="120" y="80" text-anchor="middle" font-family="serif" font-size="10" fill="#1a1a1a" font-style="italic">val<tspan baseline-shift="-25%" font-size="8">head</tspan></text>
  <text x="120" y="98" text-anchor="middle" font-family="serif" font-size="10" fill="#1a1a1a">fprogress, cid, k̃<tspan baseline-shift="-25%" font-size="8">H</tspan>,</text>
  <text x="120" y="112" text-anchor="middle" font-family="serif" font-size="10" fill="#1a1a1a">t<tspan baseline-shift="-25%" font-size="8">final</tspan>, η, ₳<tspan baseline-shift="-25%" font-size="8">o</tspan></text>
  <!-- partialFanoutTx box -->
  <rect x="295" y="25" width="235" height="215" rx="2" fill="white" stroke="#1a1a1a" stroke-width="2"/>
  <rect x="296" y="26" width="233" height="27" rx="0" fill="#FFEA94" stroke="none" stroke-width="0"/>
  <text x="412" y="44" text-anchor="middle" font-family="serif" font-size="11" fill="#1a1a1a" font-weight="bold">partialFanoutTx</text>
  <line x1="295" y1="53" x2="530" y2="53" stroke="#1a1a1a" stroke-width="1.5"/>
  <line x1="393" y1="53" x2="393" y2="100" stroke="#1a1a1a" stroke-width="0.8"/>
  <text x="344" y="70" text-anchor="middle" font-family="serif" font-size="10" fill="#1a1a1a" font-style="italic">partialFanout</text>
  <text x="344" y="84" text-anchor="middle" font-family="serif" font-size="10" fill="#1a1a1a" font-style="italic">m, crsRef</text>
  <text x="462" y="79" text-anchor="middle" font-family="serif" font-size="10" fill="#1a1a1a" font-style="italic">o<tspan baseline-shift="-25%" font-size="8">head</tspan></text>
  <line x1="295" y1="100" x2="530" y2="100" stroke="#1a1a1a" stroke-width="0.6"/>
  <text x="412" y="120" text-anchor="middle" font-family="serif" font-size="10" fill="#1a1a1a" font-style="italic">t<tspan baseline-shift="-25%" font-size="8">min</tspan>, t<tspan baseline-shift="-25%" font-size="8">max</tspan></text>
  <line x1="295" y1="130" x2="530" y2="130" stroke="#1a1a1a" stroke-width="0.6"/>
  <text x="412" y="150" text-anchor="middle" font-family="serif" font-size="10" fill="#1a1a1a" font-style="italic">κ = {k<tspan dy="4" font-size="7">i</tspan><tspan dy="-9" font-size="7">#</tspan><tspan dy="5">}</tspan></text>
  <line x1="295" y1="160" x2="530" y2="160" stroke="#1a1a1a" stroke-width="0.6"/>
  <text x="412" y="176" text-anchor="middle" font-family="serif" font-size="10" fill="#1a1a1a" font-style="italic">mint = ∅</text>
  <!-- distributed outputs: brace notation outside tx box -->
  <text x="537" y="195" text-anchor="start" font-family="serif" font-size="18" fill="#1a1a1a">}</text>
  <text x="556" y="195" text-anchor="start" font-family="serif" font-size="11" fill="#1a1a1a" font-style="italic">o<tspan baseline-shift="-25%" font-size="8">1</tspan>…o<tspan baseline-shift="-25%" font-size="8">m</tspan></text>
  <!-- ν_head output box (green, FanoutProgressDatum with η') -->
  <rect x="605" y="20" width="245" height="82" rx="14" fill="#f9fafb" stroke="#1a1a1a" stroke-width="1.8"/>
  <rect x="605" y="20" width="245" height="24" rx="14" fill="#ACE9BB"/>
  <rect x="605" y="30" width="245" height="14" fill="#ACE9BB"/>
  <line x1="605" y1="44" x2="850" y2="44" stroke="#1a1a1a" stroke-width="0.8"/>
  <line x1="605" y1="66" x2="850" y2="66" stroke="#1a1a1a" stroke-width="0.8"/>
  <text x="727" y="37" text-anchor="middle" font-family="serif" font-size="12" fill="#1a1a1a" font-style="italic" font-weight="bold">ν<tspan baseline-shift="-25%" font-size="8">head</tspan></text>
  <text x="727" y="60" text-anchor="middle" font-family="serif" font-size="10" fill="#1a1a1a" font-style="italic">val′<tspan baseline-shift="-25%" font-size="8">head</tspan></text>
  <text x="727" y="78" text-anchor="middle" font-family="serif" font-size="10" fill="#1a1a1a">fprogress, cid, k̃<tspan baseline-shift="-25%" font-size="8">H</tspan>,</text>
  <text x="727" y="92" text-anchor="middle" font-family="serif" font-size="10" fill="#1a1a1a">t<tspan baseline-shift="-25%" font-size="8">final</tspan>, η′, ₳<tspan baseline-shift="-25%" font-size="8">o</tspan></text>
  <!-- arrows -->
  <path d="M225,81 C252,81 272,77 295,77" fill="none" stroke="#1a1a1a" stroke-width="1.5" marker-end="url(#arr)"/>
  <circle cx="530" cy="79" r="4" fill="white" stroke="#1a1a1a" stroke-width="1.4"/>
  <path d="M530,79 C558,79 582,55 605,55" fill="none" stroke="#1a1a1a" stroke-width="1.5" marker-end="url(#arr)"/>
  <circle cx="605" cy="55" r="4" fill="white" stroke="#1a1a1a" stroke-width="1.4"/>
</svg>
